<mxfile host="app.diagrams.net" agent="Mozilla/5.0 (Windows NT 10.0; Win64; x64) AppleWebKit/537.36 (KHTML, like Gecko) Chrome/127.0.0.0 Safari/537.36 OPR/113.0.0.0" version="24.8.3">
  <diagram name="Page-1" id="6133507b-19e7-1e82-6fc7-422aa6c4b21f">
    <mxGraphModel dx="2850" dy="1510" grid="1" gridSize="10" guides="1" tooltips="1" connect="1" arrows="1" fold="1" page="1" pageScale="1" pageWidth="1700" pageHeight="1100" background="none" math="0" shadow="0">
      <root>
        <mxCell id="0" />
        <mxCell id="1" parent="0" />
        <mxCell id="78961159f06e98e8-17" value="Admin" style="swimlane;html=1;fontStyle=1;align=center;verticalAlign=top;childLayout=stackLayout;horizontal=1;startSize=26;horizontalStack=0;resizeParent=1;resizeLast=0;collapsible=1;marginBottom=0;swimlaneFillColor=#ffffff;rounded=0;shadow=0;comic=0;labelBackgroundColor=none;strokeWidth=1;fillColor=none;fontFamily=Verdana;fontSize=12" parent="1" vertex="1">
          <mxGeometry x="10" y="250" width="220" height="152" as="geometry" />
        </mxCell>
        <mxCell id="78961159f06e98e8-23" value="admin_id: PRIMARY, egyedi admin azonositó" style="text;html=1;strokeColor=none;fillColor=none;align=left;verticalAlign=top;spacingLeft=4;spacingRight=4;whiteSpace=wrap;overflow=hidden;rotatable=0;points=[[0,0.5],[1,0.5]];portConstraint=eastwest;" parent="78961159f06e98e8-17" vertex="1">
          <mxGeometry y="26" width="220" height="34" as="geometry" />
        </mxCell>
        <mxCell id="78961159f06e98e8-24" value="username: admin felhasználónév" style="text;html=1;strokeColor=none;fillColor=none;align=left;verticalAlign=top;spacingLeft=4;spacingRight=4;whiteSpace=wrap;overflow=hidden;rotatable=0;points=[[0,0.5],[1,0.5]];portConstraint=eastwest;" parent="78961159f06e98e8-17" vertex="1">
          <mxGeometry y="60" width="220" height="28" as="geometry" />
        </mxCell>
        <mxCell id="78961159f06e98e8-27" value="password: admin acc jelszó&lt;div&gt;&lt;span style=&quot;background-color: initial;&quot;&gt;email: admin acc email cím&lt;/span&gt;&lt;/div&gt;&lt;div&gt;last_login: utoljára bejelentkezés időpontja&lt;br&gt;&lt;div&gt;&lt;div&gt;&lt;br&gt;&lt;/div&gt;&lt;/div&gt;&lt;/div&gt;" style="text;html=1;strokeColor=none;fillColor=none;align=left;verticalAlign=top;spacingLeft=4;spacingRight=4;whiteSpace=wrap;overflow=hidden;rotatable=0;points=[[0,0.5],[1,0.5]];portConstraint=eastwest;" parent="78961159f06e98e8-17" vertex="1">
          <mxGeometry y="88" width="220" height="64" as="geometry" />
        </mxCell>
        <mxCell id="AyfZ_ONoXOZkqXgLzCaU-2" value="Vendeg" style="swimlane;html=1;fontStyle=1;align=center;verticalAlign=top;childLayout=stackLayout;horizontal=1;startSize=26;horizontalStack=0;resizeParent=1;resizeLast=0;collapsible=1;marginBottom=0;swimlaneFillColor=#ffffff;rounded=0;shadow=0;comic=0;labelBackgroundColor=none;strokeWidth=1;fillColor=none;fontFamily=Verdana;fontSize=12" vertex="1" parent="1">
          <mxGeometry x="270" y="250" width="180" height="210" as="geometry" />
        </mxCell>
        <mxCell id="AyfZ_ONoXOZkqXgLzCaU-3" value="guest_id: PRIMARY, vendég acc egyedi azonosító" style="text;html=1;strokeColor=none;fillColor=none;align=left;verticalAlign=top;spacingLeft=4;spacingRight=4;whiteSpace=wrap;overflow=hidden;rotatable=0;points=[[0,0.5],[1,0.5]];portConstraint=eastwest;" vertex="1" parent="AyfZ_ONoXOZkqXgLzCaU-2">
          <mxGeometry y="26" width="180" height="44" as="geometry" />
        </mxCell>
        <mxCell id="AyfZ_ONoXOZkqXgLzCaU-4" value="name: vendég acc neve" style="text;html=1;strokeColor=none;fillColor=none;align=left;verticalAlign=top;spacingLeft=4;spacingRight=4;whiteSpace=wrap;overflow=hidden;rotatable=0;points=[[0,0.5],[1,0.5]];portConstraint=eastwest;" vertex="1" parent="AyfZ_ONoXOZkqXgLzCaU-2">
          <mxGeometry y="70" width="180" height="28" as="geometry" />
        </mxCell>
        <mxCell id="AyfZ_ONoXOZkqXgLzCaU-6" value="email: vendég acc email cím&lt;div&gt;phone: vendég acc telefonszám&lt;br&gt;&lt;/div&gt;&lt;div&gt;address: vendég acc lakcím (OPTIONAL)&lt;/div&gt;&lt;div&gt;created_at: vendég acc létrehozásának ideje (OPTIONAL)&lt;br&gt;&lt;div&gt;&lt;div&gt;&lt;br&gt;&lt;/div&gt;&lt;/div&gt;&lt;/div&gt;" style="text;html=1;strokeColor=none;fillColor=none;align=left;verticalAlign=top;spacingLeft=4;spacingRight=4;whiteSpace=wrap;overflow=hidden;rotatable=0;points=[[0,0.5],[1,0.5]];portConstraint=eastwest;" vertex="1" parent="AyfZ_ONoXOZkqXgLzCaU-2">
          <mxGeometry y="98" width="180" height="112" as="geometry" />
        </mxCell>
        <mxCell id="AyfZ_ONoXOZkqXgLzCaU-7" value="Foglalasok" style="swimlane;html=1;fontStyle=1;align=center;verticalAlign=top;childLayout=stackLayout;horizontal=1;startSize=26;horizontalStack=0;resizeParent=1;resizeLast=0;collapsible=1;marginBottom=0;swimlaneFillColor=#ffffff;rounded=0;shadow=0;comic=0;labelBackgroundColor=none;strokeWidth=1;fillColor=none;fontFamily=Verdana;fontSize=12;strokeColor=default;swimlaneLine=1;" vertex="1" parent="1">
          <mxGeometry x="700" y="130" width="270" height="270" as="geometry" />
        </mxCell>
        <mxCell id="AyfZ_ONoXOZkqXgLzCaU-8" value="booking_id: PRIMARY, foglalás egyedi azonosítója" style="text;html=1;strokeColor=none;fillColor=none;align=left;verticalAlign=top;spacingLeft=4;spacingRight=4;whiteSpace=wrap;overflow=hidden;rotatable=0;points=[[0,0.5],[1,0.5]];portConstraint=eastwest;" vertex="1" parent="AyfZ_ONoXOZkqXgLzCaU-7">
          <mxGeometry y="26" width="270" height="34" as="geometry" />
        </mxCell>
        <mxCell id="AyfZ_ONoXOZkqXgLzCaU-9" value="guest_id: FOREIGN, vendég egyedi azonosítója (Vendég Adatok.guest_id)" style="text;html=1;strokeColor=none;fillColor=none;align=left;verticalAlign=top;spacingLeft=4;spacingRight=4;whiteSpace=wrap;overflow=hidden;rotatable=0;points=[[0,0.5],[1,0.5]];portConstraint=eastwest;" vertex="1" parent="AyfZ_ONoXOZkqXgLzCaU-7">
          <mxGeometry y="60" width="270" height="48" as="geometry" />
        </mxCell>
        <mxCell id="AyfZ_ONoXOZkqXgLzCaU-11" value="&lt;div&gt;&lt;div&gt;&lt;div&gt;apartment_id: FOREIGN, apartman egyedi azonosítója (Apartmanok.apartment_id)&lt;br&gt;&lt;/div&gt;&lt;/div&gt;&lt;/div&gt;&lt;div&gt;&lt;br&gt;&lt;/div&gt;&lt;div&gt;check_in: becsekkolás ideje&lt;/div&gt;&lt;div&gt;check_out: becsekkolás vége&lt;/div&gt;&lt;div&gt;&lt;span style=&quot;background-color: initial;&quot;&gt;total_price: teljes fizetendő összeg&lt;/span&gt;&lt;/div&gt;&lt;div&gt;booking_status: foglalás jelenlegi állapota&lt;span style=&quot;background-color: initial;&quot;&gt;&lt;br&gt;&lt;/span&gt;&lt;/div&gt;&lt;div&gt;payment_status: fizetés jelenlegi állpota&lt;br&gt;&lt;/div&gt;&lt;div&gt;special_requests: különleges kérés, üzenet&lt;br&gt;&lt;/div&gt;" style="text;html=1;strokeColor=none;fillColor=none;align=left;verticalAlign=top;spacingLeft=4;spacingRight=4;whiteSpace=wrap;overflow=hidden;rotatable=0;points=[[0,0.5],[1,0.5]];portConstraint=eastwest;" vertex="1" parent="AyfZ_ONoXOZkqXgLzCaU-7">
          <mxGeometry y="108" width="270" height="162" as="geometry" />
        </mxCell>
        <mxCell id="AyfZ_ONoXOZkqXgLzCaU-12" value="Fizetesek" style="swimlane;html=1;fontStyle=1;align=center;verticalAlign=top;childLayout=stackLayout;horizontal=1;startSize=26;horizontalStack=0;resizeParent=1;resizeLast=0;collapsible=1;marginBottom=0;swimlaneFillColor=#ffffff;rounded=0;shadow=0;comic=0;labelBackgroundColor=none;strokeWidth=1;fillColor=none;fontFamily=Verdana;fontSize=12;strokeColor=default;swimlaneLine=1;" vertex="1" parent="1">
          <mxGeometry x="1120" y="140" width="380" height="214" as="geometry" />
        </mxCell>
        <mxCell id="AyfZ_ONoXOZkqXgLzCaU-13" value="payment_id: PRIMARY, tranzakció egyedi azonosítója" style="text;html=1;strokeColor=none;fillColor=none;align=left;verticalAlign=top;spacingLeft=4;spacingRight=4;whiteSpace=wrap;overflow=hidden;rotatable=0;points=[[0,0.5],[1,0.5]];portConstraint=eastwest;" vertex="1" parent="AyfZ_ONoXOZkqXgLzCaU-12">
          <mxGeometry y="26" width="380" height="34" as="geometry" />
        </mxCell>
        <mxCell id="AyfZ_ONoXOZkqXgLzCaU-15" value="&lt;div&gt;&lt;div&gt;&lt;div&gt;booking_id: FOREIGN, foglalás egyedi azonosítója (Foglalások.booking_id)&lt;br&gt;&lt;/div&gt;&lt;/div&gt;&lt;/div&gt;&lt;div&gt;&lt;br&gt;&lt;/div&gt;&lt;div&gt;amount: befizetett összeg&lt;br&gt;&lt;/div&gt;&lt;div&gt;&lt;br&gt;&lt;/div&gt;&lt;div&gt;payment_method: vásárlási mód (bankkártya, paypal stb.)&lt;br&gt;&lt;/div&gt;&lt;div&gt;&lt;br&gt;&lt;/div&gt;&lt;div&gt;payment_status: tranzakció jelenlegi állapota&lt;br&gt;&lt;/div&gt;&lt;div&gt;&lt;br&gt;&lt;/div&gt;&lt;div&gt;transaction_date: tranzakció időpontja&lt;br&gt;&lt;/div&gt;" style="text;html=1;strokeColor=none;fillColor=none;align=left;verticalAlign=top;spacingLeft=4;spacingRight=4;whiteSpace=wrap;overflow=hidden;rotatable=0;points=[[0,0.5],[1,0.5]];portConstraint=eastwest;" vertex="1" parent="AyfZ_ONoXOZkqXgLzCaU-12">
          <mxGeometry y="60" width="380" height="132" as="geometry" />
        </mxCell>
        <mxCell id="AyfZ_ONoXOZkqXgLzCaU-16" value="Velemenyek" style="swimlane;html=1;fontStyle=1;align=center;verticalAlign=top;childLayout=stackLayout;horizontal=1;startSize=26;horizontalStack=0;resizeParent=1;resizeLast=0;collapsible=1;marginBottom=0;swimlaneFillColor=#ffffff;rounded=0;shadow=0;comic=0;labelBackgroundColor=none;strokeWidth=1;fillColor=none;fontFamily=Verdana;fontSize=12;strokeColor=default;swimlaneLine=1;" vertex="1" parent="1">
          <mxGeometry x="680" y="480" width="320" height="192" as="geometry" />
        </mxCell>
        <mxCell id="AyfZ_ONoXOZkqXgLzCaU-17" value="review_id: PRIMARY, vélemény egyedi azonosítója" style="text;html=1;strokeColor=none;fillColor=none;align=left;verticalAlign=top;spacingLeft=4;spacingRight=4;whiteSpace=wrap;overflow=hidden;rotatable=0;points=[[0,0.5],[1,0.5]];portConstraint=eastwest;" vertex="1" parent="AyfZ_ONoXOZkqXgLzCaU-16">
          <mxGeometry y="26" width="320" height="34" as="geometry" />
        </mxCell>
        <mxCell id="AyfZ_ONoXOZkqXgLzCaU-18" value="&lt;div&gt;&lt;div&gt;&lt;div&gt;guest_id: FOREIGN, vendég egyedi azonosítója (Vendég Adatok.guest_id)&lt;br&gt;&lt;/div&gt;&lt;/div&gt;&lt;/div&gt;&lt;div&gt;&lt;br&gt;&lt;/div&gt;&lt;div&gt;rating: értékelés (1-10)&lt;br&gt;&lt;/div&gt;&lt;div&gt;&lt;br&gt;&lt;/div&gt;&lt;div&gt;comment: megjegyzés&lt;br&gt;&lt;/div&gt;&lt;div&gt;&lt;br&gt;&lt;/div&gt;&lt;div&gt;created_at: vélemény létrehozásának ideje&lt;br&gt;&lt;/div&gt;&lt;div&gt;&lt;br&gt;&lt;/div&gt;" style="text;html=1;strokeColor=none;fillColor=none;align=left;verticalAlign=top;spacingLeft=4;spacingRight=4;whiteSpace=wrap;overflow=hidden;rotatable=0;points=[[0,0.5],[1,0.5]];portConstraint=eastwest;" vertex="1" parent="AyfZ_ONoXOZkqXgLzCaU-16">
          <mxGeometry y="60" width="320" height="132" as="geometry" />
        </mxCell>
        <mxCell id="AyfZ_ONoXOZkqXgLzCaU-19" value="Akciok" style="swimlane;html=1;fontStyle=1;align=center;verticalAlign=top;childLayout=stackLayout;horizontal=1;startSize=26;horizontalStack=0;resizeParent=1;resizeLast=0;collapsible=1;marginBottom=0;swimlaneFillColor=#ffffff;rounded=0;shadow=0;comic=0;labelBackgroundColor=none;strokeWidth=1;fillColor=none;fontFamily=Verdana;fontSize=12;strokeColor=default;swimlaneLine=1;" vertex="1" parent="1">
          <mxGeometry x="90" y="780" width="320" height="210" as="geometry" />
        </mxCell>
        <mxCell id="AyfZ_ONoXOZkqXgLzCaU-20" value="promotion_id: PRIMARY, promóció egyedi azonosítója" style="text;html=1;strokeColor=none;fillColor=none;align=left;verticalAlign=top;spacingLeft=4;spacingRight=4;whiteSpace=wrap;overflow=hidden;rotatable=0;points=[[0,0.5],[1,0.5]];portConstraint=eastwest;" vertex="1" parent="AyfZ_ONoXOZkqXgLzCaU-19">
          <mxGeometry y="26" width="320" height="34" as="geometry" />
        </mxCell>
        <mxCell id="AyfZ_ONoXOZkqXgLzCaU-21" value="&lt;div&gt;&lt;div&gt;&lt;div&gt;title: promóció címe&lt;br&gt;&lt;/div&gt;&lt;/div&gt;&lt;/div&gt;&lt;div&gt;&lt;br&gt;&lt;/div&gt;&lt;div&gt;description:&amp;nbsp;&lt;span style=&quot;background-color: initial;&quot;&gt;promóció leírása&lt;/span&gt;&lt;br&gt;&lt;/div&gt;&lt;div&gt;&lt;br&gt;&lt;/div&gt;&lt;div&gt;discount_percentage: leárazás mértéke százalékban&lt;br&gt;&lt;/div&gt;&lt;div&gt;&lt;br&gt;&lt;/div&gt;&lt;div&gt;start_date: promóció indulásának ideje&lt;br&gt;&lt;/div&gt;&lt;div&gt;&lt;br&gt;&lt;/div&gt;&lt;div&gt;end_date: promóció lejártának ideje&lt;br&gt;&lt;/div&gt;" style="text;html=1;strokeColor=none;fillColor=none;align=left;verticalAlign=top;spacingLeft=4;spacingRight=4;whiteSpace=wrap;overflow=hidden;rotatable=0;points=[[0,0.5],[1,0.5]];portConstraint=eastwest;" vertex="1" parent="AyfZ_ONoXOZkqXgLzCaU-19">
          <mxGeometry y="60" width="320" height="132" as="geometry" />
        </mxCell>
        <mxCell id="AyfZ_ONoXOZkqXgLzCaU-22" value="Erkezesi csomagok" style="swimlane;html=1;fontStyle=1;align=center;verticalAlign=top;childLayout=stackLayout;horizontal=1;startSize=26;horizontalStack=0;resizeParent=1;resizeLast=0;collapsible=1;marginBottom=0;swimlaneFillColor=#ffffff;rounded=0;shadow=0;comic=0;labelBackgroundColor=none;strokeWidth=1;fillColor=none;fontFamily=Verdana;fontSize=12;strokeColor=default;swimlaneLine=1;" vertex="1" parent="1">
          <mxGeometry x="40" y="560" width="190" height="192" as="geometry" />
        </mxCell>
        <mxCell id="AyfZ_ONoXOZkqXgLzCaU-23" value="package_id: PRIMARY, csomag egyedi azonosítója&lt;div&gt;&lt;br&gt;&lt;/div&gt;" style="text;html=1;strokeColor=none;fillColor=none;align=left;verticalAlign=top;spacingLeft=4;spacingRight=4;whiteSpace=wrap;overflow=hidden;rotatable=0;points=[[0,0.5],[1,0.5]];portConstraint=eastwest;" vertex="1" parent="AyfZ_ONoXOZkqXgLzCaU-22">
          <mxGeometry y="26" width="190" height="34" as="geometry" />
        </mxCell>
        <mxCell id="AyfZ_ONoXOZkqXgLzCaU-24" value="&lt;div&gt;&lt;div&gt;&lt;div&gt;name: csomag neve&lt;br&gt;&lt;/div&gt;&lt;/div&gt;&lt;/div&gt;&lt;div&gt;&lt;br&gt;&lt;/div&gt;&lt;div&gt;description: csomag leírása&lt;br&gt;&lt;/div&gt;&lt;div&gt;&lt;br&gt;&lt;/div&gt;&lt;div&gt;price: csomag ára&lt;br&gt;&lt;/div&gt;&lt;div&gt;&lt;br&gt;&lt;/div&gt;&lt;div&gt;available: csomag elérhetősege&amp;nbsp;&lt;/div&gt;&lt;div&gt;(igen/nem)&lt;/div&gt;" style="text;html=1;strokeColor=none;fillColor=none;align=left;verticalAlign=top;spacingLeft=4;spacingRight=4;whiteSpace=wrap;overflow=hidden;rotatable=0;points=[[0,0.5],[1,0.5]];portConstraint=eastwest;" vertex="1" parent="AyfZ_ONoXOZkqXgLzCaU-22">
          <mxGeometry y="60" width="190" height="132" as="geometry" />
        </mxCell>
        <mxCell id="AyfZ_ONoXOZkqXgLzCaU-25" value="Helyi programajanlok" style="swimlane;html=1;fontStyle=1;align=center;verticalAlign=top;childLayout=stackLayout;horizontal=1;startSize=26;horizontalStack=0;resizeParent=1;resizeLast=0;collapsible=1;marginBottom=0;swimlaneFillColor=#ffffff;rounded=0;shadow=0;comic=0;labelBackgroundColor=none;strokeWidth=1;fillColor=none;fontFamily=Verdana;fontSize=12;strokeColor=default;swimlaneLine=1;" vertex="1" parent="1">
          <mxGeometry x="280" y="560" width="190" height="192" as="geometry" />
        </mxCell>
        <mxCell id="AyfZ_ONoXOZkqXgLzCaU-26" value="activity_id: PRIMARY, program egyedi azonosítója" style="text;html=1;strokeColor=none;fillColor=none;align=left;verticalAlign=top;spacingLeft=4;spacingRight=4;whiteSpace=wrap;overflow=hidden;rotatable=0;points=[[0,0.5],[1,0.5]];portConstraint=eastwest;" vertex="1" parent="AyfZ_ONoXOZkqXgLzCaU-25">
          <mxGeometry y="26" width="190" height="34" as="geometry" />
        </mxCell>
        <mxCell id="AyfZ_ONoXOZkqXgLzCaU-27" value="&lt;div&gt;&lt;div&gt;&lt;div&gt;title: program címe&lt;br&gt;&lt;/div&gt;&lt;/div&gt;&lt;/div&gt;&lt;div&gt;&lt;br&gt;&lt;/div&gt;&lt;div&gt;description: program leírás&lt;br&gt;&lt;/div&gt;&lt;div&gt;&lt;br&gt;&lt;/div&gt;&lt;div&gt;location: program helye&lt;br&gt;&lt;/div&gt;&lt;div&gt;&lt;br&gt;&lt;/div&gt;&lt;div&gt;link: program linkje (OPTIONAL)&lt;/div&gt;" style="text;html=1;strokeColor=none;fillColor=none;align=left;verticalAlign=top;spacingLeft=4;spacingRight=4;whiteSpace=wrap;overflow=hidden;rotatable=0;points=[[0,0.5],[1,0.5]];portConstraint=eastwest;" vertex="1" parent="AyfZ_ONoXOZkqXgLzCaU-25">
          <mxGeometry y="60" width="190" height="132" as="geometry" />
        </mxCell>
        <mxCell id="AyfZ_ONoXOZkqXgLzCaU-28" value="Chat uzenetek" style="swimlane;html=1;fontStyle=1;align=center;verticalAlign=top;childLayout=stackLayout;horizontal=1;startSize=26;horizontalStack=0;resizeParent=1;resizeLast=0;collapsible=1;marginBottom=0;swimlaneFillColor=#ffffff;rounded=0;shadow=0;comic=0;labelBackgroundColor=none;strokeWidth=1;fillColor=none;fontFamily=Verdana;fontSize=12;strokeColor=default;swimlaneLine=1;" vertex="1" parent="1">
          <mxGeometry x="680" y="690" width="310" height="160" as="geometry" />
        </mxCell>
        <mxCell id="AyfZ_ONoXOZkqXgLzCaU-29" value="chat_id: PRIMARY, csevegés egyedi azonosítója" style="text;html=1;strokeColor=none;fillColor=none;align=left;verticalAlign=top;spacingLeft=4;spacingRight=4;whiteSpace=wrap;overflow=hidden;rotatable=0;points=[[0,0.5],[1,0.5]];portConstraint=eastwest;" vertex="1" parent="AyfZ_ONoXOZkqXgLzCaU-28">
          <mxGeometry y="26" width="310" height="34" as="geometry" />
        </mxCell>
        <mxCell id="AyfZ_ONoXOZkqXgLzCaU-30" value="&lt;div&gt;&lt;div&gt;&lt;div&gt;guest_id: FOREIGN, vendég egyedi azonosítója(Vendég Adatok.guest_id)&lt;br&gt;&lt;/div&gt;&lt;/div&gt;&lt;/div&gt;&lt;div&gt;&lt;br&gt;&lt;/div&gt;&lt;div&gt;message: csevegőfalon beírt üzenet&lt;br&gt;&lt;/div&gt;&lt;div&gt;&lt;br&gt;&lt;/div&gt;&lt;div&gt;sent_at: üzenet elküldésének ideje&lt;br&gt;&lt;/div&gt;&lt;div&gt;&lt;br&gt;&lt;/div&gt;" style="text;html=1;strokeColor=none;fillColor=none;align=left;verticalAlign=top;spacingLeft=4;spacingRight=4;whiteSpace=wrap;overflow=hidden;rotatable=0;points=[[0,0.5],[1,0.5]];portConstraint=eastwest;" vertex="1" parent="AyfZ_ONoXOZkqXgLzCaU-28">
          <mxGeometry y="60" width="310" height="100" as="geometry" />
        </mxCell>
        <mxCell id="AyfZ_ONoXOZkqXgLzCaU-32" value="Foglalasi modositasok" style="swimlane;html=1;fontStyle=1;align=center;verticalAlign=top;childLayout=stackLayout;horizontal=1;startSize=26;horizontalStack=0;resizeParent=1;resizeLast=0;collapsible=1;marginBottom=0;swimlaneFillColor=#ffffff;rounded=0;shadow=0;comic=0;labelBackgroundColor=none;strokeWidth=1;fillColor=none;fontFamily=Verdana;fontSize=12;strokeColor=default;swimlaneLine=1;" vertex="1" parent="1">
          <mxGeometry x="1120" y="400" width="320" height="192" as="geometry" />
        </mxCell>
        <mxCell id="AyfZ_ONoXOZkqXgLzCaU-33" value="modification_id: PRIMARY, módosítás egyedi azonosítója" style="text;html=1;strokeColor=none;fillColor=none;align=left;verticalAlign=top;spacingLeft=4;spacingRight=4;whiteSpace=wrap;overflow=hidden;rotatable=0;points=[[0,0.5],[1,0.5]];portConstraint=eastwest;" vertex="1" parent="AyfZ_ONoXOZkqXgLzCaU-32">
          <mxGeometry y="26" width="320" height="34" as="geometry" />
        </mxCell>
        <mxCell id="AyfZ_ONoXOZkqXgLzCaU-34" value="&lt;div&gt;&lt;div&gt;&lt;div&gt;booking_id: FOREIGN, foglalás egyedi azonosítója (Foglalások.booking_id)&lt;br&gt;&lt;/div&gt;&lt;/div&gt;&lt;/div&gt;&lt;div&gt;&lt;br&gt;&lt;/div&gt;&lt;div&gt;modification_type: módosítás típusa&lt;br&gt;&lt;/div&gt;&lt;div&gt;&lt;br&gt;&lt;/div&gt;&lt;div&gt;requested_at: módosítási kérelem elküldésének időpontja&lt;br&gt;&lt;/div&gt;&lt;div&gt;&lt;br&gt;&lt;/div&gt;&lt;div&gt;status: módosítás jelenlegi státusza&lt;/div&gt;" style="text;html=1;strokeColor=none;fillColor=none;align=left;verticalAlign=top;spacingLeft=4;spacingRight=4;whiteSpace=wrap;overflow=hidden;rotatable=0;points=[[0,0.5],[1,0.5]];portConstraint=eastwest;" vertex="1" parent="AyfZ_ONoXOZkqXgLzCaU-32">
          <mxGeometry y="60" width="320" height="132" as="geometry" />
        </mxCell>
        <mxCell id="AyfZ_ONoXOZkqXgLzCaU-40" value="" style="endArrow=classic;html=1;rounded=0;exitX=1;exitY=0.5;exitDx=0;exitDy=0;entryX=0.01;entryY=0.311;entryDx=0;entryDy=0;entryPerimeter=0;" edge="1" parent="1" source="AyfZ_ONoXOZkqXgLzCaU-3" target="AyfZ_ONoXOZkqXgLzCaU-9">
          <mxGeometry width="50" height="50" relative="1" as="geometry">
            <mxPoint x="850" y="520" as="sourcePoint" />
            <mxPoint x="900" y="470" as="targetPoint" />
          </mxGeometry>
        </mxCell>
        <mxCell id="AyfZ_ONoXOZkqXgLzCaU-41" value="" style="endArrow=classic;html=1;rounded=0;exitX=1;exitY=0.5;exitDx=0;exitDy=0;entryX=-0.006;entryY=0.1;entryDx=0;entryDy=0;entryPerimeter=0;" edge="1" parent="1" source="AyfZ_ONoXOZkqXgLzCaU-8" target="AyfZ_ONoXOZkqXgLzCaU-15">
          <mxGeometry width="50" height="50" relative="1" as="geometry">
            <mxPoint x="820" y="520" as="sourcePoint" />
            <mxPoint x="870" y="470" as="targetPoint" />
          </mxGeometry>
        </mxCell>
        <mxCell id="AyfZ_ONoXOZkqXgLzCaU-42" value="" style="endArrow=classic;html=1;rounded=0;exitX=1;exitY=0.5;exitDx=0;exitDy=0;entryX=-0.002;entryY=0.104;entryDx=0;entryDy=0;entryPerimeter=0;" edge="1" parent="1" source="AyfZ_ONoXOZkqXgLzCaU-3" target="AyfZ_ONoXOZkqXgLzCaU-18">
          <mxGeometry width="50" height="50" relative="1" as="geometry">
            <mxPoint x="820" y="520" as="sourcePoint" />
            <mxPoint x="870" y="470" as="targetPoint" />
          </mxGeometry>
        </mxCell>
        <mxCell id="AyfZ_ONoXOZkqXgLzCaU-43" value="" style="endArrow=classic;html=1;rounded=0;exitX=1;exitY=0.5;exitDx=0;exitDy=0;entryX=0.001;entryY=0.091;entryDx=0;entryDy=0;entryPerimeter=0;" edge="1" parent="1" source="AyfZ_ONoXOZkqXgLzCaU-8" target="AyfZ_ONoXOZkqXgLzCaU-34">
          <mxGeometry width="50" height="50" relative="1" as="geometry">
            <mxPoint x="820" y="520" as="sourcePoint" />
            <mxPoint x="870" y="470" as="targetPoint" />
          </mxGeometry>
        </mxCell>
        <mxCell id="AyfZ_ONoXOZkqXgLzCaU-44" value="" style="endArrow=classic;html=1;rounded=0;exitX=1;exitY=0.5;exitDx=0;exitDy=0;entryX=-0.006;entryY=0.12;entryDx=0;entryDy=0;entryPerimeter=0;" edge="1" parent="1" source="AyfZ_ONoXOZkqXgLzCaU-3" target="AyfZ_ONoXOZkqXgLzCaU-30">
          <mxGeometry width="50" height="50" relative="1" as="geometry">
            <mxPoint x="820" y="640" as="sourcePoint" />
            <mxPoint x="440" y="650" as="targetPoint" />
          </mxGeometry>
        </mxCell>
        <mxCell id="AyfZ_ONoXOZkqXgLzCaU-45" value="Apartmanok" style="swimlane;html=1;fontStyle=1;align=center;verticalAlign=top;childLayout=stackLayout;horizontal=1;startSize=26;horizontalStack=0;resizeParent=1;resizeLast=0;collapsible=1;marginBottom=0;swimlaneFillColor=#ffffff;rounded=0;shadow=0;comic=0;labelBackgroundColor=none;strokeWidth=1;fillColor=none;fontFamily=Verdana;fontSize=12;strokeColor=default;swimlaneLine=1;" vertex="1" parent="1">
          <mxGeometry x="270" y="110" width="200" height="110" as="geometry" />
        </mxCell>
        <mxCell id="AyfZ_ONoXOZkqXgLzCaU-46" value="apartman_id: PRIMARY, apartman egyedi azonosítója" style="text;html=1;strokeColor=none;fillColor=none;align=left;verticalAlign=top;spacingLeft=4;spacingRight=4;whiteSpace=wrap;overflow=hidden;rotatable=0;points=[[0,0.5],[1,0.5]];portConstraint=eastwest;" vertex="1" parent="AyfZ_ONoXOZkqXgLzCaU-45">
          <mxGeometry y="26" width="200" height="34" as="geometry" />
        </mxCell>
        <mxCell id="AyfZ_ONoXOZkqXgLzCaU-47" value="&lt;div&gt;&lt;div&gt;&lt;div&gt;&lt;br&gt;&lt;/div&gt;&lt;/div&gt;&lt;/div&gt;" style="text;html=1;strokeColor=none;fillColor=none;align=left;verticalAlign=top;spacingLeft=4;spacingRight=4;whiteSpace=wrap;overflow=hidden;rotatable=0;points=[[0,0.5],[1,0.5]];portConstraint=eastwest;" vertex="1" parent="AyfZ_ONoXOZkqXgLzCaU-45">
          <mxGeometry y="60" width="200" height="50" as="geometry" />
        </mxCell>
        <mxCell id="AyfZ_ONoXOZkqXgLzCaU-48" value="" style="endArrow=classic;html=1;rounded=0;exitX=1;exitY=0.5;exitDx=0;exitDy=0;entryX=-0.021;entryY=0.153;entryDx=0;entryDy=0;entryPerimeter=0;" edge="1" parent="1" source="AyfZ_ONoXOZkqXgLzCaU-46" target="AyfZ_ONoXOZkqXgLzCaU-11">
          <mxGeometry width="50" height="50" relative="1" as="geometry">
            <mxPoint x="550" y="430" as="sourcePoint" />
            <mxPoint x="600" y="380" as="targetPoint" />
          </mxGeometry>
        </mxCell>
        <mxCell id="AyfZ_ONoXOZkqXgLzCaU-50" value="&lt;font style=&quot;font-size: 40px;&quot;&gt;Andi Szállás adatbázis szerkezet&lt;/font&gt;" style="text;html=1;align=center;verticalAlign=middle;whiteSpace=wrap;rounded=0;" vertex="1" parent="1">
          <mxGeometry y="30" width="620" height="50" as="geometry" />
        </mxCell>
        <mxCell id="AyfZ_ONoXOZkqXgLzCaU-51" value="&lt;font style=&quot;&quot;&gt;&lt;font style=&quot;font-size: 25px;&quot;&gt;Magyarázat:&lt;/font&gt;&lt;br&gt;&lt;span style=&quot;font-size: 20px;&quot;&gt;&quot;acc&quot; = fiók&lt;/span&gt;&lt;/font&gt;&lt;div style=&quot;font-size: 20px;&quot;&gt;&lt;font style=&quot;font-size: 20px;&quot;&gt;&quot;PRIMARY&quot; = elsődleges kulcs&lt;/font&gt;&lt;/div&gt;&lt;div style=&quot;font-size: 20px;&quot;&gt;&lt;font style=&quot;font-size: 20px;&quot;&gt;&quot;FOREIGN&quot; = idegen kulcs&lt;/font&gt;&lt;/div&gt;" style="text;html=1;align=right;verticalAlign=middle;whiteSpace=wrap;rounded=0;" vertex="1" parent="1">
          <mxGeometry x="1390" y="940" width="300" height="150" as="geometry" />
        </mxCell>
      </root>
    </mxGraphModel>
  </diagram>
</mxfile>
